<svg xmlns="http://www.w3.org/2000/svg" width="163.091" height="21.344" viewBox="0 0 163.091 21.344">
  <defs>
    <style>
      .cls-1 {
        fill: #fff;
        fill-rule: evenodd;
      }
    </style>
  </defs>
  <path id="お問い合わせ" class="cls-1" d="M982.506,223.191c-2.881-1.752-6.6-.312-9.217.84a0.072,0.072,0,0,1-.1-0.072v-3.624a0.1,0.1,0,0,1,.1-0.1,5.994,5.994,0,0,0,3.072-.888,0.49,0.49,0,0,0-.576-0.792,5.587,5.587,0,0,1-2.5.672,0.072,0.072,0,0,1-.1-0.072v-3.576a0.66,0.66,0,0,0-1.32,0v3.6a0.11,0.11,0,0,1-.12.1h-2.929a0.493,0.493,0,0,0,0,.984h2.929a0.11,0.11,0,0,1,.12.1v4.248a0.162,0.162,0,0,1-.1.144c-0.624.336-1.248,0.7-1.848,1.08-1.081.649-2.737,1.537-2.425,3.073,0.216,1.152,1.848,2.28,2.929,2.544a2.082,2.082,0,0,0,2.544-1.464,7.531,7.531,0,0,0,.216-2.352v-2.521a0.2,0.2,0,0,1,.1-0.144c2.256-1.1,5.9-2.448,8.257-.936a3.441,3.441,0,0,1,1.56,3.241c-0.312,3.072-3.985,3.7-6.337,2.568a4.17,4.17,0,0,1-1.536-1.272h-0.024a0.414,0.414,0,0,0-.672.48c0.024,0,.144.192,0.408,0.5a4.809,4.809,0,0,0,1.392,1.1c3.144,1.752,8.233.6,8.353-3.624A4.287,4.287,0,0,0,982.506,223.191Zm-10.657,4.441a6.761,6.761,0,0,1-.192,1.92,0.775,0.775,0,0,1-1.08.528c-0.576-.168-1.9-0.888-1.993-1.512-0.12-.816,1.032-1.464,1.609-1.824,0.5-.336,1.032-0.673,1.56-0.985a0.061,0.061,0,0,1,.1.048C971.849,226.408,971.873,227.008,971.849,227.632Zm13.681-9.7a5.57,5.57,0,0,0-7.321-.5,0.421,0.421,0,0,0,.432.72c2.376-1.368,4.081-.888,6.073.792A0.649,0.649,0,0,0,985.53,217.935Zm21.94,5.88v4.513h-5.89v-4.513h5.89Zm-5.53-.6a6.5,6.5,0,0,0-1.27-.528,0.29,0.29,0,0,0-.43.312v7.009a0.332,0.332,0,0,0,.38.384h0.6a0.326,0.326,0,0,0,.36-0.384v-1.08h5.89v0.816a0.326,0.326,0,0,0,.36.384h0.6a0.332,0.332,0,0,0,.38-0.384v-5.5l0.53-.336a0.384,0.384,0,0,0,.21-0.312,2.507,2.507,0,0,0-1.12-1.2,0.378,0.378,0,0,0-.56.072l-0.62.744h-5.31Zm-5.348-6.36h5.348V219.3h-5.348v-2.448Zm5.348-2.905v2.305h-5.348V213.95h5.348Zm-5.42-.768c-0.312-.168-0.624-0.312-0.912-0.456-0.288-.12-0.456,0-0.456.288v20.354a0.336,0.336,0,0,0,.384.36h0.7a0.318,0.318,0,0,0,.36-0.36V219.9h5.348V220.7a0.347,0.347,0,0,0,.39.384h0.6a0.34,0.34,0,0,0,.38-0.384V214.31l0.46-.36a0.374,0.374,0,0,0,.17-0.288,2.8,2.8,0,0,0-1.01-1.1,0.383,0.383,0,0,0-.55.048l-0.58.744h-4.968Zm10.73,6.121v-2.448h5.64V219.3h-5.64Zm5.64-5.353v2.305h-5.64V213.95h5.64Zm-5.35-.6c-0.29-.144-0.7-0.336-1.2-0.528a0.288,0.288,0,0,0-.43.312v7.489a0.332,0.332,0,0,0,.38.384h0.58a0.332,0.332,0,0,0,.38-0.384V219.9h5.64V230.9a0.655,0.655,0,0,1-.77.7c-0.91,0-1.97-.048-3.14-0.144-0.27-.024-0.41.048-0.41,0.24a0.379,0.379,0,0,0,.36.408,10.673,10.673,0,0,1,2.42.576,0.871,0.871,0,0,1,.48.552,0.4,0.4,0,0,0,.44.336,5.151,5.151,0,0,0,1.12-.24,1.518,1.518,0,0,0,.94-1.608V214.358l0.5-.36a0.346,0.346,0,0,0,.2-0.288,2.937,2.937,0,0,0-1.08-1.2,0.375,0.375,0,0,0-.56.048l-0.67.792h-5.18Zm35.69,13.274c0-2.521-1.49-6.793-4.59-7.321-2.45-.408-4.65,1.224-5.83,3.336a28.927,28.927,0,0,0-2.14,4.921,1.8,1.8,0,0,1-.81,1.224,2.083,2.083,0,0,1-1.47-1.1c-1.29-1.825-1.37-4.2-1.37-6.361,0-.912.22-2.064-0.33-2.88a2.3,2.3,0,0,0-2.04-.768,0.456,0.456,0,0,0,0,.912c0.79-.072.81,0.744,0.81,1.3a21.609,21.609,0,0,0,.56,6.216c0.43,1.369,2.16,4.777,4.08,4.081a2.394,2.394,0,0,0,1.24-1.632c0.34-.888.6-1.8,0.92-2.713,0.72-2.088,1.65-4.272,3.62-5.184a3.475,3.475,0,0,1,4.49,1.3c0.94,1.392.94,3.192,1.06,4.825A0.9,0.9,0,0,0,1043.23,226.624Zm13.94-5.4c-0.29,0-.43.144-0.31,0.336a0.4,0.4,0,0,0,.43.264h10.27a0.409,0.409,0,0,0,.41-0.192,0.382,0.382,0,0,0-.07-0.528c-0.41-.408-0.77-0.792-1.11-1.1a0.318,0.318,0,0,0-.52.048l-0.94,1.176h-8.16Zm5.76-7.609a1.31,1.31,0,0,0,1.06-.5c0-.264-0.63-0.5-1.9-0.744a0.39,0.39,0,0,0-.48.216,24.4,24.4,0,0,1-9.58,10.249c-0.19.12-.26,0.264-0.14,0.432a0.374,0.374,0,0,0,.5.12,22.447,22.447,0,0,0,10.16-9.1,26.955,26.955,0,0,0,9.26,8.137,0.36,0.36,0,0,0,.5-0.144,3.188,3.188,0,0,1,.63-0.744c0.19-.192.19-0.384-0.07-0.5a28.047,28.047,0,0,1-9.94-7.393v-0.024Zm4.61,12.193v5.641h-10.49v-5.641h10.49Zm-10.16-.6c-0.5-.264-0.96-0.456-1.32-0.624a0.293,0.293,0,0,0-.43.312v8.425a0.358,0.358,0,0,0,.39.384h0.67a0.336,0.336,0,0,0,.36-0.384v-1.272h10.49v1.272a0.35,0.35,0,0,0,.38.384h0.67a0.336,0.336,0,0,0,.36-0.384v-7.032l0.65-.457a0.391,0.391,0,0,0,.22-0.264,4.13,4.13,0,0,0-1.27-1.272,0.359,0.359,0,0,0-.56.048l-0.72.864h-9.89Zm42.56-2.832a5.507,5.507,0,0,0-4.59-2.688,10.678,10.678,0,0,0-6.89,2.52,0.083,0.083,0,0,1-.12-0.072v-7.777a0.68,0.68,0,1,0-1.36,0v8.905a0.241,0.241,0,0,1-.1.168c-1.01.888-1.99,1.776-2.86,2.712a0.112,0.112,0,0,1-.19-0.12c0.65-1.2,1.3-2.4,1.85-3.648a5.8,5.8,0,0,0,.6-2.76c-0.1-2.04-2.57-2.424-4.2-2.28h-0.02l-0.03.024a0.6,0.6,0,0,0,.15,1.2c1.03-.048,2.95-0.216,3.09,1.152a4.965,4.965,0,0,1-.45,2.3c-0.63,1.488-1.37,2.952-2.14,4.369l-0.98,1.632a1,1,0,0,0-.22,1.248,0.6,0.6,0,0,0,.82,0l0.02-.048c1.51-1.56,2.83-2.9,4.54-4.489a0.073,0.073,0,0,1,.12.048v7.273a0.681,0.681,0,1,0,1.36,0v-8.569a0.254,0.254,0,0,1,.1-0.144c2.43-2.016,4.92-2.928,6.82-2.688a4.171,4.171,0,0,1,3.41,2.376,4.364,4.364,0,0,1,.31,2.04,4.9,4.9,0,0,1-1.97,3.385,8.442,8.442,0,0,1-5.23,1.392h-0.03a0.42,0.42,0,0,0-.02.84c2.14,0.1,4.06.1,6-1.152a5.616,5.616,0,0,0,2.86-4.345A5.289,5.289,0,0,0,1099.94,222.375Zm30.57-3.552a0.491,0.491,0,0,0-.88-0.432,2.666,2.666,0,0,1-2.52,1.152h-2.33a0.09,0.09,0,0,1-.1-0.1v-4.056a0.686,0.686,0,1,0-1.37,0v4.056a0.083,0.083,0,0,1-.09.1h-6.56a0.1,0.1,0,0,1-.12-0.1v-4.08a0.709,0.709,0,1,0-1.41.024l0.02,4.056c0,0.072-.02.1-0.09,0.1h-5.12a0.48,0.48,0,0,0,0,.96h5.12a0.1,0.1,0,0,1,.12.1l0.02,6.145a4.562,4.562,0,0,0,4.3,4.536,20.863,20.863,0,0,0,5.47.024,0.66,0.66,0,1,0-.17-1.3,18.807,18.807,0,0,1-5.06.072c-2.04-.312-2.96-1.32-3.17-3.456-0.05-.649-0.05-1.369-0.03-6.025a0.09,0.09,0,0,1,.1-0.1h6.58a0.083,0.083,0,0,1,.09.1v2.952a0.192,0.192,0,0,1-.33.144l-0.55-.576-0.32-.288c-0.4-.48-1.05.24-0.64,0.648l0.31,0.312c0.93,0.912,1.53,1.536,1.53,2.376a0.686,0.686,0,1,0,1.37,0V220.6a0.09,0.09,0,0,1,.1-0.1h2.33A3.592,3.592,0,0,0,1130.51,218.823Z" transform="translate(-967.469 -212.375)"/>
</svg>
