<svg xmlns="http://www.w3.org/2000/svg" width="22.53" height="200" viewBox="0 0 22.53 200">
  <defs>
    <style>
      .cls-1 {
        fill: #fff;
        fill-rule: evenodd;
      }
    </style>
  </defs>
  <path id="logo_white" class="cls-1" d="M1041.89,145.691a0.358,0.358,0,0,0,.39.383h0.6a0.333,0.333,0,0,0,.35-0.383v-12.2a7.8,7.8,0,0,1,1.44,2.848,0.868,0.868,0,0,0,.69.813,0.721,0.721,0,0,0,.75-0.885c0-1.173-.96-2.393-2.88-3.709V130.5h2.76a0.419,0.419,0,0,0,.36-0.694c-0.22-.311-0.51-0.646-0.84-1.029a0.307,0.307,0,0,0-.55.024l-0.77,1.1h-0.96v-3.972a1.24,1.24,0,0,0,1.03-.646c0-.335-0.64-0.551-1.96-0.646a0.337,0.337,0,0,0-.41.359V129.9h-2.7c-0.26,0-.41.12-0.33,0.287a0.407,0.407,0,0,0,.43.311h2.58l-0.07.407a32,32,0,0,1-3.26,9.691,0.322,0.322,0,0,0,.08.455,0.31,0.31,0,0,0,.5-0.12,28.746,28.746,0,0,0,2.77-6.15v10.912Zm8.04-5.48V137.34h5.56v2.871h-5.56Zm5.56,3.733h-5.56v-3.135h5.56v3.135Zm-4.55-10.5a18.7,18.7,0,0,0,.98-2.536h1.51a16.443,16.443,0,0,0,1.12,2.536h-3.61Zm-2.35,12.252a0.344,0.344,0,0,0,.39.383h0.6a0.333,0.333,0,0,0,.35-0.383v-1.149h5.56v1.149a0.341,0.341,0,0,0,.38.383h0.62a0.335,0.335,0,0,0,.36-0.383v-7.873l0.33-.215a0.183,0.183,0,0,0,.12-0.168,2.425,2.425,0,0,0-1.05-.981,0.468,0.468,0,0,0-.55,0l-0.33.288h-5.41l-0.43-.192-0.46-.191,0.05-.1a14.539,14.539,0,0,0,1.51-2.225h4.28a16.279,16.279,0,0,0,4.52,4.618,0.337,0.337,0,0,0,.53-0.1,3.475,3.475,0,0,1,.5-0.55c0.22-.168.19-0.359-0.04-0.5a16.382,16.382,0,0,1-4.31-3.469h3.61a0.4,0.4,0,0,0,.38-0.144,0.4,0.4,0,0,0-.04-0.526,9.657,9.657,0,0,0-.7-0.79l-0.24-.239a0.307,0.307,0,0,0-.52.024l-0.86,1.076h-2.11a14.753,14.753,0,0,1-1.51-2.536h3.81a0.367,0.367,0,0,0,.36-0.12,0.392,0.392,0,0,0-.03-0.526,6.862,6.862,0,0,0-.69-0.79l-0.19-.191a0.318,0.318,0,0,0-.53.048l-0.77.981h-3.97c0.24-.933.41-1.651,0.48-2.13h6.34a0.436,0.436,0,0,0,.38-0.143,0.406,0.406,0,0,0-.04-0.527c-0.31-.383-0.65-0.718-0.98-1.053a0.329,0.329,0,0,0-.53.024l-0.86,1.1h-4.19c0.05-.359.17-0.981,0.29-1.819a1.043,1.043,0,0,0,.93-0.574c0-.359-0.62-0.6-1.89-0.718a0.357,0.357,0,0,0-.43.359c-0.1,1.077-.19,1.986-0.31,2.752h-4.84c-0.26,0-.4.12-0.33,0.311a0.421,0.421,0,0,0,.43.287h4.62a19.762,19.762,0,0,1-.48,2.13h-3.4c-0.26,0-.4.119-0.33,0.311a0.429,0.429,0,0,0,.43.287h3.11a15.633,15.633,0,0,1-.98,2.536h-3.42c-0.29,0-.43.12-0.34,0.311a0.446,0.446,0,0,0,.43.288h3.02a16.1,16.1,0,0,1-4.55,5.312,0.328,0.328,0,0,0-.12.454,0.341,0.341,0,0,0,.53.072,20.017,20.017,0,0,0,3.51-2.967v8.782Zm4.6,19.354a4.805,4.805,0,0,0,.33-1.268h5.15a0.433,0.433,0,0,0,.38-0.144,0.414,0.414,0,0,0-.05-0.526c-0.33-.383-0.67-0.742-1-1.1a0.329,0.329,0,0,0-.53.048l-0.84,1.124h-3.01c0.02-.55.05-0.933,0.05-1.2v-0.431a1.111,1.111,0,0,0,.88-0.6c0-.263-0.6-0.407-1.82-0.479a0.33,0.33,0,0,0-.4.359v1.125a10.928,10.928,0,0,1-.07,1.22h-4.31c-0.31,0-.43.144-0.34,0.335a0.41,0.41,0,0,0,.43.264h4.12c-0.41,2.01-1.82,3.493-4.26,4.474-0.24.1-.33,0.24-0.26,0.383a0.429,0.429,0,0,0,.5.215c2.44-.646,4.04-1.746,4.81-3.278a8.634,8.634,0,0,1,3.49,2.417,1.246,1.246,0,0,0,.84.55,0.687,0.687,0,0,0,.77-0.765C1058.05,166.7,1056.44,165.787,1053.19,165.045Zm-0.22,7.657v3.709h-3.04V172.7h3.04Zm-2.7-.6c-0.48-.216-0.86-0.359-1.2-0.5a0.275,0.275,0,0,0-.43.287V178.4a0.328,0.328,0,0,0,.39.359h0.55a0.315,0.315,0,0,0,.35-0.359v-1.388h3.04v0.885a0.317,0.317,0,0,0,.36.359h0.5a0.317,0.317,0,0,0,.36-0.359v-4.785l0.63-.431a0.259,0.259,0,0,0,.16-0.215,3.227,3.227,0,0,0-1.07-1.1,0.358,0.358,0,0,0-.53.048l-0.57.694h-2.54Zm6.22,7.059a0.71,0.71,0,0,1-.86.741c-0.79,0-1.72-.047-2.82-0.143-0.27-.024-0.41.072-0.41,0.239a0.379,0.379,0,0,0,.36.407,9.7,9.7,0,0,1,2.03.431,1.135,1.135,0,0,1,.72.67,0.358,0.358,0,0,0,.41.335,1.793,1.793,0,0,0,1.91-1.986v-9.883h2.44a0.339,0.339,0,0,0,.38-0.167,0.393,0.393,0,0,0-.07-0.5,11.69,11.69,0,0,0-1-1.077,0.309,0.309,0,0,0-.53.048l-0.81,1.1h-11.7v-3.661a1.335,1.335,0,0,0,.95-0.67c0-.287-0.59-0.5-1.79-0.574a0.337,0.337,0,0,0-.41.358V176.65h-1.65V162.293a1.406,1.406,0,0,0,.96-0.67c0-.287-0.6-0.455-1.84-0.5a0.343,0.343,0,0,0-.41.358V176.65h-1.6V165.643a1.209,1.209,0,0,0,.95-0.622c0-.287-0.6-0.479-1.82-0.55a0.329,0.329,0,0,0-.4.358v14.716a0.341,0.341,0,0,0,.38.383h0.53a0.335,0.335,0,0,0,.36-0.383v-2.3h4.54v1.532a0.347,0.347,0,0,0,.39.383h0.47a0.335,0.335,0,0,0,.39-0.383v-8.806h9.95v9.189Zm-9.98,21.628a1.812,1.812,0,0,0-2.01-2.034h-0.69a0.467,0.467,0,0,0,0,.933h0.55a0.72,0.72,0,0,1,.67.79v8.662a0.741,0.741,0,1,0,1.48-.048v-8.3Zm7.99-1.867a0.786,0.786,0,0,0-1.57,0v8.3c-0.05,4.187-3.5,6.46-6.73,8.638a0.41,0.41,0,0,0,.43.694c4.17-2.417,7.87-5.073,7.87-10.242v-7.394Zm0.58,34.068a0.262,0.262,0,0,0-.14.5,7.875,7.875,0,0,1,2.89,2.776c0.34,0.526.93,0.407,0.98-.287C1058.88,234.116,1055.53,232.992,1055.08,232.992Zm2.03-1.46a0.288,0.288,0,0,0-.09.551,7.7,7.7,0,0,1,3.01,2.608c0.34,0.5.98,0.383,0.96-.311C1060.97,232.489,1057.59,231.556,1057.11,231.532Zm-13.44,19.741a0.422,0.422,0,0,0,.4.742c3.16-1.579,6.56-3.23,9.02-5.839a13.719,13.719,0,0,0,3.21-5.12,14.833,14.833,0,0,0,.65-4.523,0.842,0.842,0,0,0-1.68-.048,15.218,15.218,0,0,1-.69,4.738,11.992,11.992,0,0,1-3.02,4.547A39.327,39.327,0,0,1,1043.67,251.273Zm-1.03-14.261a0.452,0.452,0,0,0-.39.813,10.326,10.326,0,0,1,2.56,2.226,18.682,18.682,0,0,1,1.39,2.225,0.823,0.823,0,0,0,1.37-.909,10.854,10.854,0,0,0-4.91-4.355h-0.02Zm7.68,35.027a1.953,1.953,0,0,0-2.06-2.129h-0.69a0.455,0.455,0,0,0,0,.909h0.62a0.74,0.74,0,0,1,.64.79l0.03,16.3a0.731,0.731,0,1,0,1.46.048V272.039Zm5.69,43.283c-3.3.072-5.91-.6-7.94-2.177a0.606,0.606,0,0,1-.24-0.479V308.12a1.954,1.954,0,0,0-2.06-2.13h-0.69a0.455,0.455,0,0,0,0,.909h0.62a0.755,0.755,0,0,1,.65.79l0.02,16.008a0.731,0.731,0,1,0,1.46.048v-9.356a0.154,0.154,0,0,1,.24-0.143,12.722,12.722,0,0,0,7.99,2.584A0.754,0.754,0,0,0,1056.01,315.322Z" transform="translate(-1038.47 -124.469)"/>
</svg>
